<?xml version="1.0" encoding="utf-8"?>
<!-- Generator: Adobe Illustrator 26.0.1, SVG Export Plug-In . SVG Version: 6.00 Build 0)  -->
<svg version="1.1" id="Capa_1" xmlns="http://www.w3.org/2000/svg" xmlns:xlink="http://www.w3.org/1999/xlink" x="0px" y="0px"
	 viewBox="0 0 512 512" style="enable-background:new 0 0 512 512;" xml:space="preserve">
<style type="text/css">
	.st0{fill:#D54200;}
</style>
<g>
	<g>
		<path class="st0" d="M487.1,25C453.8-8.3,400-8.3,366.7,25L51.9,339.7c-2.1,2.1-3.8,4.8-4.8,7.8L1.1,485.6
			c-5.2,15.6,9.7,30.5,25.3,25.3l138.2-46.1c2.9-1,5.7-2.7,7.8-4.8l314.7-314.7C520.3,112.2,520.3,58.1,487.1,25z M51.7,460.4
			l23.2-69.5l46.4,46.4L51.7,460.4z M158.2,417.6l-63.8-63.8L361.6,86.6l63.8,63.8L158.2,417.6z M458.8,117.1l-5,5l-63.8-63.8l5-5
			c17.6-17.6,46.2-17.6,63.8,0C476.4,70.8,476.4,99.5,458.8,117.1z"/>
	</g>
</g>
</svg>
