<!-- icon666.com - MILLIONS OF FREE VECTOR ICONS --><svg id="light" enable-background="new 0 0 24 24" viewBox="0 0 24 24" xmlns="http://www.w3.org/2000/svg"><g><path d="m12 24c-6.617 0-12-5.383-12-12s5.383-12 12-12 12 5.383 12 12-5.383 12-12 12zm0-23c-6.065 0-11 4.935-11 11s4.935 11 11 11 11-4.935 11-11-4.935-11-11-11z" fill="#000000" style="fill: rgb(234, 92, 16);"></path></g><g><path d="m7 11c-1.103 0-2-.897-2-2s.897-2 2-2 2 .897 2 2-.897 2-2 2zm0-3c-.551 0-1 .449-1 1s.449 1 1 1 1-.449 1-1-.449-1-1-1z" fill="#000000" style="fill: rgb(234, 92, 16);"></path></g><g><path d="m17 11c-1.103 0-2-.897-2-2s.897-2 2-2 2 .897 2 2-.897 2-2 2zm0-3c-.551 0-1 .449-1 1s.449 1 1 1 1-.449 1-1-.449-1-1-1z" fill="#000000" style="fill: rgb(234, 92, 16);"></path></g><g><path d="m17.303 19.25c-.128 0-.256-.049-.354-.146-2.729-2.729-7.17-2.729-9.899 0-.195.195-.512.195-.707 0s-.195-.512 0-.707c3.119-3.119 8.194-3.119 11.313 0 .195.195.195.512 0 .707-.097.097-.225.146-.353.146z" fill="#000000" style="fill: rgb(234, 92, 16);"></path></g></svg>