<svg id="Layer_1" data-name="Layer 1" xmlns="http://www.w3.org/2000/svg" viewBox="0 0 2363.46 451.54"><defs><style>.cls-1,.cls-3{fill:#fff;}.cls-2{fill:#d54200;}.cls-3{font-size:237px;font-family:Roboto-Regular, Roboto;}</style></defs><path class="cls-1" d="M482,30.23V90.06H437V30.23H407V90.06H105V30.23H75V90.06H30V30.23H0V481.77H30V421.94H75v59.83h30V421.94H407v59.83h30V421.94h45v59.83h30V30.23ZM75,392H30V319H75ZM75,289H30V223H75Zm0-96H30V120.06H75ZM407,391.94H105V120.05H407Zm75,0H437V319h45ZM482,289H437V223h45Zm0-96H437V120.06h45Z" transform="translate(0 -30.23)"/><path class="cls-2" d="M172.49,150.91V361.08L354.51,256Zm30,52,92,53.12-92,53.12V202.88Z" transform="translate(0 -30.23)"/><text class="cls-3" transform="translate(591.05 301)">Поиск фильмов</text></svg>