<svg id="Layer_1" data-name="Layer 1" xmlns="http://www.w3.org/2000/svg" viewBox="0 0 512 451.54"><defs><style>.cls-1{fill:#fff;}.cls-2{fill:#d54200;}</style></defs><path class="cls-1" d="M482,0V59.83H437V0H407V59.83H105V0H75V59.83H30V0H0V451.54H30V391.71H75v59.83h30V391.71H407v59.83h30V391.71h45v59.83h30V0ZM75,361.77H30v-73H75Zm0-103H30v-66H75Zm0-96H30V89.83H75ZM407,361.71H105V89.82H407Zm75,0H437V288.77h45Zm0-102.94H437v-66h45Zm0-96H437V89.83h45Z" transform="translate(0 0)"/><path class="cls-2" d="M172.49,120.68V330.85l182-105.08Zm30,52,92,53.12-92,53.12V172.68Z" transform="translate(0 0)"/></svg>